<svg width="105" height="23" viewBox="0 0 105 23" fill="none" xmlns="http://www.w3.org/2000/svg">
<path d="M4.78719 3.0957V21.9999H0.995483V3.0957H4.78719ZM16.848 6.7791C18.6355 6.7791 20.0799 7.3478 21.1813 8.4853C22.2827 9.6048 22.8334 11.1756 22.8334 13.1978V21.9999H19.0417V13.7124C19.0417 12.5207 18.7438 11.6089 18.148 10.977C17.5521 10.327 16.7396 10.002 15.7105 10.002C14.6632 10.002 13.8327 10.327 13.2188 10.977C12.623 11.6089 12.3251 12.5207 12.3251 13.7124V21.9999H8.53339V6.9957H12.3251V8.8645C12.8306 8.2145 13.4716 7.7089 14.248 7.3478C15.0424 6.9686 15.9091 6.7791 16.848 6.7791ZM33.3182 10.1103H30.6911V21.9999H26.8453V10.1103H25.1391V6.9957H26.8453V6.2374C26.8453 4.3957 27.3689 3.0416 28.4161 2.1749C29.4634 1.3082 31.0432 0.902002 33.1557 0.956202V4.152C32.2349 4.1339 31.5939 4.2874 31.2328 4.6124C30.8717 4.9374 30.6911 5.5242 30.6911 6.3728V6.9957H33.3182V10.1103ZM37.6983 5.2082C37.0303 5.2082 36.4705 5.0006 36.0192 4.5853C35.5858 4.152 35.3692 3.6193 35.3692 2.9874C35.3692 2.3555 35.5858 1.8318 36.0192 1.4166C36.4705 0.983202 37.0303 0.766602 37.6983 0.766602C38.3664 0.766602 38.9171 0.983202 39.3504 1.4166C39.8018 1.8318 40.0275 2.3555 40.0275 2.9874C40.0275 3.6193 39.8018 4.152 39.3504 4.5853C38.9171 5.0006 38.3664 5.2082 37.6983 5.2082ZM39.5671 6.9957V21.9999H35.7754V6.9957H39.5671ZM51.628 6.7791C53.415 6.7791 54.86 7.3478 55.961 8.4853C57.063 9.6048 57.613 11.1756 57.613 13.1978V21.9999H53.822V13.7124C53.822 12.5207 53.524 11.6089 52.928 10.977C52.332 10.327 51.52 10.002 50.49 10.002C49.443 10.002 48.613 10.327 47.999 10.977C47.403 11.6089 47.105 12.5207 47.105 13.7124V21.9999H43.3133V6.9957H47.105V8.8645C47.61 8.2145 48.251 7.7089 49.028 7.3478C49.822 6.9686 50.689 6.7791 51.628 6.7791ZM63.142 5.2082C62.474 5.2082 61.914 5.0006 61.463 4.5853C61.029 4.152 60.813 3.6193 60.813 2.9874C60.813 2.3555 61.029 1.8318 61.463 1.4166C61.914 0.983202 62.474 0.766602 63.142 0.766602C63.81 0.766602 64.361 0.983202 64.794 1.4166C65.245 1.8318 65.471 2.3555 65.471 2.9874C65.471 3.6193 65.245 4.152 64.794 4.5853C64.361 5.0006 63.81 5.2082 63.142 5.2082ZM65.011 6.9957V21.9999H61.219V6.9957H65.011ZM72.223 18.8853H78.913V21.9999H67.917V18.9395L74.471 10.1103H67.944V6.9957H78.832V10.0562L72.223 18.8853ZM80.874 14.4436C80.874 12.927 81.172 11.5818 81.768 10.4082C82.381 9.2346 83.203 8.3318 84.232 7.6999C85.279 7.068 86.444 6.752 87.726 6.752C88.845 6.752 89.82 6.9777 90.651 7.4291C91.5 7.8805 92.177 8.4492 92.682 9.1353V6.9957H96.501V21.9999H92.682V19.8062C92.195 20.5103 91.518 21.0971 90.651 21.5666C89.802 22.018 88.818 22.2437 87.699 22.2437C86.435 22.2437 85.279 21.9187 84.232 21.2687C83.203 20.6187 82.381 19.7068 81.768 18.5332C81.172 17.3416 80.874 15.9784 80.874 14.4436ZM92.682 14.4978C92.682 13.577 92.502 12.7916 92.14 12.1416C91.779 11.4735 91.292 10.968 90.678 10.6249C90.064 10.2638 89.405 10.0832 88.701 10.0832C87.997 10.0832 87.347 10.2548 86.751 10.5978C86.155 10.9409 85.668 11.4464 85.288 12.1145C84.927 12.7645 84.747 13.5409 84.747 14.4436C84.747 15.3464 84.927 16.1409 85.288 16.827C85.668 17.495 86.155 18.0096 86.751 18.3707C87.365 18.7318 88.015 18.9124 88.701 18.9124C89.405 18.9124 90.064 18.7409 90.678 18.3978C91.292 18.0367 91.779 17.5311 92.14 16.8811C92.502 16.2131 92.682 15.4187 92.682 14.4978ZM102.127 5.2082C101.459 5.2082 100.899 5.0006 100.448 4.5853C100.015 4.152 99.798 3.6193 99.798 2.9874C99.798 2.3555 100.015 1.8318 100.448 1.4166C100.899 0.983202 101.459 0.766602 102.127 0.766602C102.795 0.766602 103.346 0.983202 103.779 1.4166C104.231 1.8318 104.456 2.3555 104.456 2.9874C104.456 3.6193 104.231 4.152 103.779 4.5853C103.346 5.0006 102.795 5.2082 102.127 5.2082ZM103.996 6.9957V21.9999H100.204V6.9957H103.996Z" fill="white"/>
</svg>
